<?xml version="1.0" standalone="no"?>
<!DOCTYPE svg PUBLIC "-//W3C//DTD SVG 20010904//EN"
 "http://www.w3.org/TR/2001/REC-SVG-20010904/DTD/svg10.dtd">
<svg version="1.0" xmlns="http://www.w3.org/2000/svg"
 width="650.000000pt" height="488.000000pt" viewBox="0 0 650.000000 488.000000"
 preserveAspectRatio="xMidYMid meet">
<metadata>
Created by potrace 1.16, written by Peter Selinger 2001-2019
</metadata>
<g transform="translate(0.000000,488.000000) scale(0.100000,-0.100000)"
fill="#000000" stroke="none">
<path d="M5810 4870 c-54 -8 -288 -19 -406 -20 -46 0 -66 -5 -84 -20 -13 -11
-27 -20 -32 -20 -4 0 -8 -9 -8 -19 0 -20 9 -23 160 -52 30 -6 71 -15 90 -20
19 -5 82 -16 140 -24 58 -9 121 -21 140 -27 38 -12 150 -87 150 -100 0 -4 6
-8 14 -8 9 0 15 -15 18 -47 3 -46 3 -46 -38 -64 -22 -10 -51 -27 -65 -37 -24
-19 -131 -46 -219 -56 -25 -3 -119 -8 -210 -12 -214 -8 -221 -8 -247 -22 -23
-13 -43 -66 -43 -117 0 -17 -5 -46 -11 -65 -17 -57 -15 -308 3 -351 20 -46 63
-86 108 -100 19 -6 42 -18 52 -26 9 -8 47 -19 85 -25 80 -12 148 -34 185 -60
14 -10 40 -21 57 -24 17 -4 31 -12 31 -19 0 -8 6 -16 13 -19 8 -4 6 -9 -7 -18
-11 -7 -30 -23 -42 -34 -12 -12 -35 -24 -51 -27 -36 -8 -245 -46 -303 -56 -63
-11 -95 -26 -114 -53 -21 -30 -20 -53 5 -97 19 -35 26 -39 108 -59 49 -12 100
-22 115 -22 15 0 42 -6 61 -14 20 -9 49 -12 76 -9 34 5 45 2 58 -14 24 -30 86
-73 104 -73 13 0 17 -9 17 -40 0 -33 -3 -40 -20 -40 -11 0 -20 -6 -20 -14 0
-8 -8 -17 -19 -21 -10 -3 -26 -14 -36 -25 -12 -13 -31 -20 -55 -20 -21 0 -53
-6 -71 -14 -19 -8 -76 -19 -126 -26 -51 -7 -90 -17 -87 -21 3 -5 0 -9 -6 -9
-6 0 -9 -4 -5 -9 3 -5 -3 -12 -12 -14 -20 -5 -9 -6 207 -12 80 -2 309 -13 510
-24 201 -11 400 -21 443 -21 l77 0 0 1075 0 1075 -317 -1 c-175 -1 -343 -5
-373 -9z"/>
<path d="M1483 4371 c-12 -34 -5 -122 11 -134 6 -5 2 -7 -11 -4 -13 3 -23 1
-23 -4 0 -5 10 -9 23 -10 22 0 22 0 -2 -10 -17 -7 -27 -6 -31 2 -14 21 -18
-16 -5 -41 10 -20 10 -26 -1 -38 -16 -15 -18 -32 -5 -32 4 0 6 -11 3 -25 -2
-15 0 -25 7 -25 6 0 11 6 11 14 0 8 13 25 28 38 15 13 31 31 35 41 5 15 14 18
42 17 3 0 19 7 35 15 36 19 141 11 177 -13 13 -8 23 -11 23 -8 0 4 14 -1 31
-9 46 -24 52 -14 14 28 -34 39 -51 48 -41 22 8 -21 -6 -19 -49 6 -27 16 -33
24 -23 30 18 12 1 11 -20 0 -11 -6 -32 -6 -52 0 -33 8 -33 8 -5 6 29 -3 30 -1
27 30 -3 24 -9 33 -23 33 -12 0 -19 7 -19 18 0 23 -19 42 -42 42 -10 0 -23 9
-30 20 -8 13 -24 20 -43 20 -25 0 -33 -6 -42 -29z"/>
<path d="M3285 4393 c-44 -1 -135 -7 -201 -14 -86 -8 -127 -8 -140 -1 -15 9
-24 6 -46 -15 -26 -25 -28 -25 -105 -16 l-78 10 83 2 c54 1 82 5 82 12 0 8
-18 10 -62 5 -35 -3 -106 -11 -158 -16 -52 -6 -96 -15 -98 -20 -2 -6 -20 -10
-40 -10 -21 0 -54 -9 -75 -20 -21 -11 -42 -18 -48 -15 -5 4 -21 -2 -37 -13
-20 -14 -39 -17 -74 -14 -43 4 -48 2 -48 -16 0 -24 -16 -37 -25 -22 -10 16
-25 12 -25 -7 -1 -17 -1 -17 -14 0 -7 9 -22 17 -32 17 -18 -1 -18 -1 -1 -14
25 -19 22 -22 -22 -18 -37 4 -38 3 -44 -33 -3 -21 -14 -46 -24 -57 -11 -13
-16 -32 -15 -56 2 -28 0 -33 -7 -22 -6 8 -11 11 -11 5 0 -5 -4 -3 -10 5 -5 8
-12 11 -16 8 -3 -4 8 -21 25 -39 17 -17 38 -44 47 -60 8 -16 17 -29 19 -29 12
0 3 29 -15 50 -11 13 -18 25 -15 28 3 3 14 -7 26 -21 11 -15 24 -27 28 -27 9
0 8 37 -2 46 -11 11 -8 46 3 39 6 -3 10 -14 10 -25 0 -10 7 -20 15 -23 8 -3
23 -26 34 -51 12 -25 25 -48 31 -51 5 -3 10 -17 10 -31 0 -13 6 -24 13 -24 9
0 11 -12 9 -41 -5 -48 16 -129 35 -136 27 -11 43 18 43 77 0 67 7 90 26 90 7
0 20 10 28 22 9 12 16 19 16 14 0 -5 7 -3 15 4 18 15 18 10 5 -25 -7 -17 -7
-32 0 -43 5 -9 10 -12 10 -6 0 5 7 19 16 30 8 10 13 14 10 8 -19 -39 -29 -72
-27 -91 1 -13 -2 -23 -8 -23 -6 0 -11 4 -11 9 0 5 -9 11 -20 14 -15 4 -20 0
-20 -15 0 -10 -4 -16 -10 -13 -11 7 -14 -53 -4 -80 5 -13 9 -14 15 -4 5 8 7 2
7 -17 -2 -55 83 -213 105 -197 7 5 21 8 32 8 11 0 23 4 27 10 4 5 13 10 19 10
15 0 58 75 52 90 -2 6 3 25 12 41 8 16 15 41 15 56 0 19 4 26 14 22 8 -3 16 3
19 15 6 23 -17 96 -30 96 -4 0 -15 -21 -23 -46 -8 -26 -20 -53 -26 -60 -7 -8
-14 -23 -18 -34 -3 -11 -3 -6 0 10 4 17 6 50 5 74 -1 24 4 50 10 57 7 9 8 32
4 65 -5 38 -4 50 5 44 6 -4 19 0 29 9 17 15 19 15 24 1 4 -8 4 -22 1 -30 -4
-8 -1 -15 6 -15 9 0 10 11 6 35 -5 23 -3 35 5 35 7 0 10 17 7 49 -2 33 1 47 8
44 8 -3 10 -22 7 -56 -15 -150 -7 -267 18 -252 5 4 9 1 9 -6 0 -7 11 -2 24 10
19 18 26 38 32 88 3 35 13 70 20 78 8 7 14 23 14 34 0 12 4 21 9 21 5 0 11 14
15 30 5 27 36 44 36 20 0 -5 5 -10 10 -10 6 0 10 18 10 40 0 42 18 55 27 19 5
-16 8 -18 15 -7 7 9 8 3 4 -17 l-6 -30 14 25 c8 14 17 24 20 23 15 -7 28 -1
62 30 21 17 39 31 41 30 8 -7 22 -1 43 17 13 11 29 20 36 20 7 0 17 12 22 28
7 17 11 21 11 9 1 -19 30 -16 86 9 53 24 159 14 186 -17 9 -11 21 -19 28 -19
10 0 15 -14 12 -33 -1 -4 6 -10 14 -13 10 -4 13 -14 9 -29 -3 -13 0 -26 6 -30
9 -6 9 -10 -1 -16 -10 -6 -11 -11 -2 -20 8 -8 7 -18 -3 -37 -18 -35 -18 -43 4
-40 10 2 17 -3 17 -12 0 -9 -7 -14 -17 -12 -20 3 -24 -14 -5 -21 7 -4 4 -8
-10 -12 -11 -4 -23 -16 -26 -26 -4 -16 -2 -19 15 -13 17 5 20 3 15 -10 -4 -9
-2 -16 3 -16 6 0 10 5 10 11 0 6 7 4 15 -4 17 -17 84 -42 92 -34 2 3 28 -2 56
-10 43 -13 110 -16 372 -16 429 0 684 7 717 21 36 15 48 41 48 104 0 30 5 59
12 66 12 12 -1 151 -28 292 -20 101 -22 107 -42 115 -9 4 -99 11 -199 16 -100
5 -194 14 -208 19 -56 21 -707 42 -1050 33z"/>
<path d="M266 4148 c-10 -51 -22 -113 -27 -138 -5 -25 -14 -115 -19 -200 -5
-85 -14 -194 -20 -242 -6 -49 -15 -175 -20 -280 -6 -106 -14 -236 -20 -288 -5
-52 -15 -232 -20 -400 -11 -317 -28 -472 -58 -525 -10 -16 -32 -36 -50 -44
l-32 -15 0 -246 0 -247 84 -7 c46 -3 97 -12 113 -20 108 -52 121 -56 176 -56
49 0 88 11 107 30 3 3 17 11 33 19 15 8 27 18 27 23 0 4 7 8 16 8 9 0 12 -5 8
-12 -4 -7 -3 -8 4 -4 7 4 12 13 12 21 0 7 17 24 38 36 20 13 44 29 52 36 8 7
34 26 58 43 23 16 42 37 42 45 0 8 6 18 14 22 43 26 105 176 106 258 0 28 6
86 14 130 8 44 19 111 25 150 5 38 15 71 21 73 5 2 10 18 10 35 0 21 3 27 9
19 6 -10 12 -5 21 19 8 17 40 58 72 90 34 35 58 67 58 80 0 11 11 34 25 51 14
16 25 35 25 42 0 21 79 66 115 66 19 0 37 -4 40 -10 3 -5 15 -10 26 -10 22 0
22 0 9 -36 -10 -26 -10 -26 12 -12 23 15 82 26 172 33 27 2 52 8 55 12 3 5 22
9 43 8 20 0 34 3 32 7 -3 4 8 11 23 14 15 4 38 14 51 22 12 8 22 11 22 8 0 -4
19 3 43 15 23 12 37 24 30 26 -6 2 -29 -4 -50 -15 -21 -11 -51 -22 -68 -26
l-30 -6 35 31 c35 30 35 30 8 24 -28 -7 -40 8 -16 19 7 3 -7 4 -31 1 -24 -3
-57 -13 -73 -21 -16 -9 -32 -14 -34 -12 -2 3 29 21 69 42 43 22 61 35 45 33
-15 -2 -27 -1 -26 2 2 20 -4 31 -17 31 -8 0 -15 -4 -15 -10 0 -5 -7 -10 -16
-10 -8 0 -12 4 -9 10 3 5 -2 9 -12 8 -46 -4 -60 8 -67 57 0 5 -22 8 -48 6 -30
-1 -48 2 -48 8 0 6 -8 11 -17 12 -10 0 -36 7 -58 15 -22 7 -30 12 -17 10 44
-8 16 18 -29 28 -43 9 -44 9 -16 18 17 6 24 14 20 21 -4 7 -8 23 -9 37 -2 38
-3 40 -19 40 -8 0 -15 5 -15 10 0 6 -18 10 -40 10 -22 0 -40 -4 -40 -10 0 -17
-17 -11 -49 16 -19 16 -31 35 -31 50 0 21 -4 24 -40 24 -29 0 -40 4 -40 15 0
11 11 15 40 15 29 0 40 4 40 15 0 11 -11 15 -40 15 -29 0 -40 -4 -40 -15 0 -8
-4 -15 -10 -15 -5 0 -10 -18 -10 -40 0 -29 -4 -40 -15 -40 -11 0 -15 -11 -15
-40 0 -29 -4 -40 -15 -40 -10 0 -15 -10 -15 -28 0 -15 -5 -33 -12 -40 -9 -9
-9 -12 0 -12 7 0 12 -5 12 -11 0 -17 -60 -69 -79 -69 -18 0 -35 -38 -47 -105
-3 -22 -11 -45 -16 -51 -5 -7 -5 -66 0 -145 5 -74 7 -185 4 -246 l-5 -113 -41
-42 c-40 -43 -42 -43 -98 -40 -49 3 -62 9 -92 38 -20 19 -38 47 -42 62 -3 15
-11 47 -19 72 -30 101 -40 186 -71 605 -8 116 -19 242 -24 280 -5 39 -9 130
-11 202 -1 73 -8 190 -15 260 -8 71 -19 175 -25 233 -6 58 -15 110 -19 115 -4
6 -13 34 -21 63 -7 28 -16 52 -21 52 -4 0 -8 9 -8 20 0 11 -6 20 -13 20 -9 0
-20 -31 -31 -92z"/>
<path d="M3770 3403 c-25 -2 -83 -8 -130 -14 -47 -6 -102 -13 -124 -15 -21 -3
-45 -12 -53 -20 -8 -8 -28 -21 -45 -30 -23 -12 -27 -18 -18 -29 8 -10 8 -14
-2 -18 -8 -3 -5 -6 7 -7 19 -1 18 -2 -5 -22 l-25 -21 25 6 c13 3 42 2 65 -3
22 -5 65 -10 95 -11 30 -1 60 -6 65 -10 20 -15 436 -21 620 -9 99 7 254 15
343 19 182 7 192 11 192 77 0 50 -38 64 -174 64 -62 0 -165 6 -231 14 -66 8
-208 17 -315 21 -107 3 -206 7 -220 9 -14 1 -45 1 -70 -1z"/>
<path d="M2130 3350 c0 -6 -9 -10 -20 -10 -12 0 -39 -9 -62 -21 -30 -15 -37
-24 -29 -32 6 -6 11 -29 11 -52 0 -56 19 -87 64 -109 35 -17 44 -18 108 -6 56
11 74 11 90 1 27 -17 32 -9 32 52 0 70 -44 147 -95 163 -56 18 -99 24 -99 14z"/>
<path d="M2727 3329 c-35 -14 -69 -84 -75 -157 -4 -52 -4 -53 16 -41 17 10 28
9 72 -10 64 -27 118 -22 160 18 25 22 29 35 32 90 3 58 1 65 -22 83 -30 22
-142 33 -183 17z"/>
<path d="M1730 3306 c-6 -12 -13 -40 -16 -62 -2 -21 -5 -45 -6 -51 -1 -7 -4
-13 -8 -13 -3 0 -22 -13 -40 -30 -18 -16 -29 -30 -23 -30 6 0 13 -9 16 -20 5
-21 32 -26 57 -10 13 9 13 11 0 20 -11 7 -2 10 35 11 l50 2 -40 7 c-35 6 -37
8 -17 15 12 4 22 11 22 16 0 5 6 9 14 9 8 0 16 10 18 23 4 31 52 36 68 7 13
-24 34 -17 22 8 -5 9 -7 23 -6 30 1 6 2 16 3 21 0 5 15 11 32 15 42 8 30 20
-33 34 -105 23 -135 22 -148 -2z"/>
<path d="M3090 3304 c-25 -13 -51 -24 -57 -24 -7 0 -13 -4 -13 -10 0 -5 8 -10
18 -10 22 0 74 -34 65 -43 -3 -4 11 -7 32 -7 32 0 36 -2 25 -15 -10 -12 -10
-15 4 -15 9 0 16 -4 16 -10 0 -5 12 -11 28 -11 17 -1 21 -3 9 -6 -14 -4 -16
-8 -6 -19 6 -8 18 -14 25 -14 8 0 11 -6 8 -15 -9 -22 9 -18 40 9 27 23 28 23
6 29 -12 3 -19 10 -16 15 3 5 -1 15 -9 22 -8 7 -12 16 -9 21 3 5 -5 9 -18 10
-19 0 -20 2 -6 7 16 7 16 10 -7 34 -14 15 -25 34 -25 43 0 14 -40 37 -58 34
-4 -1 -27 -12 -52 -25z"/>
<path d="M1952 3073 c-29 -2 -50 -8 -47 -13 3 -4 14 -6 25 -3 15 4 20 0 20
-16 0 -13 7 -21 18 -22 14 0 14 -2 -3 -8 -16 -6 -10 -11 32 -25 62 -21 119
-18 116 4 -2 9 7 20 19 25 32 14 37 39 7 30 -13 -4 -21 -4 -16 1 11 11 -50 34
-87 32 -17 -1 -55 -3 -84 -5z"/>
<path d="M2548 3053 c-16 -8 -28 -19 -27 -26 0 -9 2 -9 6 1 6 16 23 15 23 -2
0 -8 7 -16 15 -20 8 -3 15 -10 15 -16 0 -5 -7 -10 -15 -10 -8 0 -15 -6 -15
-13 0 -8 -10 -19 -23 -24 -52 -24 -128 17 -107 57 12 22 10 41 -5 52 -16 12
-62 9 -72 -4 -15 -20 -24 -50 -13 -43 13 8 24 -40 16 -76 -5 -26 -1 -36 28
-62 19 -18 45 -40 58 -49 l23 -17 -32 -1 c-18 0 -33 -4 -33 -10 0 -5 7 -10 16
-10 8 0 13 -3 11 -7 -8 -16 31 -38 73 -41 39 -3 43 -2 31 12 -11 13 -11 16 2
16 22 0 29 28 10 39 -19 10 -12 20 45 60 28 20 32 28 32 69 0 26 7 59 14 74
14 26 13 29 -14 48 -15 11 -30 20 -32 19 -1 -1 -15 -8 -30 -16z"/>
<path d="M1793 2747 c-24 -11 -43 -25 -43 -30 0 -4 4 -6 9 -3 5 4 16 3 25 0
15 -6 15 -18 -1 -77 -4 -16 -2 -17 17 -7 20 11 21 10 15 -10 -6 -20 -5 -21 17
-10 12 7 20 9 16 5 -4 -5 -3 -14 3 -21 9 -11 6 -16 -12 -23 l-24 -10 26 0 c15
-1 32 -8 39 -16 7 -9 19 -14 26 -11 11 4 12 -5 7 -39 -4 -33 -2 -45 7 -45 8 0
10 8 7 21 -3 12 -3 18 0 15 3 -3 12 2 19 12 9 11 13 13 14 4 0 -7 6 -10 13 -7
6 4 2 -2 -11 -12 -24 -19 -36 -80 -16 -76 7 1 15 -9 18 -22 8 -30 26 -33 26
-5 0 11 -4 20 -10 20 -5 0 -10 7 -10 16 0 8 5 12 10 9 6 -3 10 3 10 14 0 10 4
21 10 23 5 2 21 31 34 66 24 62 24 62 4 62 -12 0 -30 -8 -41 -17 -19 -18 -20
-18 -3 14 9 18 16 34 16 38 0 11 -25 -1 -43 -20 -10 -11 -4 1 13 28 26 39 29
48 16 53 -9 3 -13 10 -10 15 11 19 -15 7 -72 -32 -43 -30 -50 -32 -24 -10 40
35 33 41 -13 10 -22 -14 -19 -9 12 18 l44 39 -39 -3 c-25 -1 -32 0 -19 5 28
10 32 36 5 29 -11 -3 -18 -1 -14 4 9 16 -29 9 -73 -14z"/>
<path d="M3020 2720 c8 -16 8 -20 -2 -18 -7 2 -13 -3 -13 -10 0 -15 136 -125
144 -116 3 3 -3 12 -13 20 -25 18 -14 28 21 20 19 -5 23 -10 14 -15 -10 -6
-10 -10 -1 -16 6 -4 9 -13 6 -21 -3 -8 2 -18 11 -21 9 -4 24 -14 32 -22 19
-19 16 -55 -5 -47 -22 8 -17 -2 7 -15 17 -9 20 -8 13 3 -4 7 2 4 14 -6 22 -19
30 -32 13 -22 -19 12 -39 -5 -35 -30 3 -16 -1 -27 -11 -30 -11 -5 -13 -10 -5
-19 7 -9 6 -16 -4 -24 -8 -7 -12 -19 -9 -26 7 -20 -35 -75 -58 -75 -10 0 -19
-7 -19 -15 0 -8 -7 -15 -15 -15 -9 0 -21 -11 -27 -25 -8 -18 -19 -25 -40 -25
-16 0 -28 -5 -28 -13 0 -13 -65 -37 -100 -37 -11 0 -20 -4 -20 -10 0 -5 -17
-10 -37 -10 -33 0 -36 -2 -22 -15 8 -9 32 -18 53 -20 20 -3 47 -10 58 -16 13
-7 43 -9 78 -5 45 5 60 3 70 -9 8 -10 9 -15 1 -15 -6 0 -11 -4 -11 -10 0 -15
-38 -50 -55 -50 -16 0 -55 -34 -55 -49 0 -5 -11 -12 -24 -15 -14 -3 -27 -15
-31 -25 -3 -11 -26 -38 -52 -62 -44 -40 -46 -45 -47 -99 -1 -49 -5 -62 -33
-94 -19 -21 -33 -48 -33 -63 0 -15 -11 -36 -25 -49 -14 -13 -25 -33 -25 -45 0
-18 -5 -21 -30 -17 -16 3 -30 0 -30 -5 0 -18 -55 5 -85 35 -16 17 -47 42 -68
56 -21 14 -45 38 -53 54 -8 15 -20 28 -27 28 -23 0 -97 100 -97 132 0 7 -6 24
-13 38 -7 14 -14 50 -16 80 -1 30 -7 59 -12 65 -5 5 -9 16 -9 25 0 9 -29 36
-65 60 -36 23 -72 52 -80 63 -12 18 -77 58 -117 73 -18 6 -25 24 -10 24 4 0
28 -7 54 -14 25 -8 48 -13 50 -11 2 2 19 6 38 9 19 3 59 10 89 15 30 6 59 7
65 4 6 -4 5 1 -3 10 -7 9 -24 17 -36 17 -12 0 -28 7 -35 14 -22 27 -76 39
-114 25 -30 -11 -38 -10 -53 3 -10 9 -31 20 -48 24 -16 3 -39 15 -50 24 -24
21 -108 60 -129 60 -10 0 -13 8 -11 29 3 20 -1 31 -12 35 -9 4 -18 4 -21 2
-11 -12 -19 -91 -12 -117 5 -16 5 -31 0 -34 -8 -5 -7 -55 0 -160 1 -5 -4 -30
-11 -55 -6 -25 -12 -86 -12 -135 -1 -80 2 -95 22 -122 14 -19 20 -36 15 -44
-7 -13 -16 -90 -15 -137 1 -13 -6 -33 -14 -45 -8 -12 -15 -32 -15 -44 0 -13
-4 -23 -9 -23 -9 0 -37 -72 -45 -117 -3 -12 -11 -34 -19 -50 -28 -56 -41 -140
-29 -181 9 -30 9 -54 -2 -109 -7 -39 -16 -75 -20 -82 -4 -6 -29 -11 -55 -11
-36 0 -53 -5 -67 -21 -17 -19 -25 -20 -96 -14 l-78 7 0 -26 c0 -33 23 -45 85
-42 28 1 73 -3 100 -11 28 -7 66 -13 85 -13 19 0 56 -11 82 -25 41 -22 52 -24
95 -16 26 5 56 13 65 16 19 7 31 32 22 46 -3 5 0 9 5 9 6 0 11 9 11 20 0 11
-4 20 -8 20 -11 0 -8 27 5 60 6 14 7 30 2 36 -9 12 -1 52 15 73 6 8 12 24 13
35 1 12 4 34 7 49 3 22 0 30 -17 37 -17 7 -11 9 29 9 27 1 55 -4 61 -10 15
-15 73 -1 80 19 4 10 15 28 25 41 26 34 23 38 -28 35 -41 -3 -46 -1 -41 16 3
11 1 18 -4 14 -5 -3 -9 0 -9 5 0 6 -10 11 -22 11 -13 0 -29 4 -36 9 -15 9 24
31 96 52 28 8 49 22 59 40 20 34 105 73 139 65 13 -4 31 -19 41 -34 9 -15 37
-56 62 -91 25 -36 47 -73 48 -84 2 -10 18 -40 35 -65 18 -26 32 -50 30 -54 -5
-16 100 -200 135 -236 7 -7 13 -22 13 -32 0 -10 4 -21 9 -24 5 -4 8 -14 7 -23
-2 -10 3 -36 10 -59 12 -40 11 -42 -12 -54 -32 -18 -30 -38 4 -51 26 -10 57
-9 157 8 60 10 75 19 75 41 0 10 9 35 20 56 20 41 19 56 -7 56 -10 0 -14 -6
-10 -19 7 -27 -53 -84 -84 -79 -23 3 -24 6 -22 86 2 75 6 88 34 130 31 46 31
48 26 142 -3 74 0 113 16 175 25 101 60 180 84 193 30 16 121 17 200 2 63 -11
79 -11 132 4 33 9 70 14 83 11 16 -4 33 1 51 16 16 12 31 19 34 15 9 -9 -18
-115 -33 -127 -14 -11 -38 -3 -30 10 3 4 -5 13 -18 20 -18 10 -34 9 -83 -3
-34 -9 -81 -16 -106 -16 -49 0 -77 -7 -77 -20 0 -4 31 -28 68 -54 61 -41 75
-46 123 -46 33 0 63 6 75 15 20 15 45 20 43 8 -4 -25 4 -33 34 -33 39 0 74
-31 69 -61 -2 -11 6 -35 18 -55 22 -34 22 -84 0 -84 -5 0 -25 -16 -44 -36 -28
-29 -34 -42 -32 -70 2 -19 6 -37 10 -41 3 -3 6 -12 6 -20 0 -7 7 -30 16 -51
16 -35 18 -44 22 -84 2 -12 18 -20 58 -28 47 -10 59 -9 80 4 13 9 24 21 24 26
0 17 84 21 140 7 36 -9 62 -11 75 -5 12 5 43 5 78 0 72 -11 112 -8 160 11 51
22 50 30 -19 115 l-22 26 -62 -32 c-83 -42 -105 -42 -121 3 -7 19 -17 35 -22
35 -5 0 -25 -13 -44 -30 -18 -16 -38 -30 -43 -30 -5 0 -25 17 -45 37 -32 33
-36 43 -31 72 6 42 84 161 132 203 68 60 56 96 -74 219 -84 79 -132 151 -132
196 0 7 -22 35 -50 62 -27 27 -50 54 -50 60 0 7 -14 18 -32 25 l-31 14 -2 158
c-2 154 -6 182 -41 261 -8 17 -15 60 -15 95 -1 36 -8 73 -16 87 -8 13 -16 33
-17 45 -2 12 -16 41 -31 66 -20 31 -28 55 -26 78 5 60 -58 118 -116 107 -20
-4 -23 -3 -9 3 15 7 3 16 -63 50 -66 33 -79 38 -71 22z m-855 -837 c43 -46 48
-61 24 -73 -11 -7 -23 -9 -26 -6 -4 3 -12 1 -20 -6 -11 -9 -10 -15 9 -35 37
-39 31 -48 -31 -48 l-56 0 0 45 c0 39 3 45 23 48 24 4 29 30 12 63 -24 45 25
54 65 12z m896 -92 c1 -3 3 -30 4 -59 2 -31 10 -61 19 -71 15 -16 15 -19 -2
-34 -10 -10 -22 -17 -27 -17 -12 0 -34 33 -35 53 0 15 -26 32 -65 41 -27 7
-45 19 -45 31 0 38 145 92 151 56z"/>
<path d="M2979 2673 c-1 -4 -1 -11 0 -15 0 -5 -2 -7 -6 -7 -32 5 -33 -4 -7
-38 l28 -38 -39 29 c-38 30 -39 27 -2 -29 12 -19 6 -15 -17 12 -44 51 -76 51
-45 0 25 -42 25 -61 0 -23 -23 34 -54 56 -45 31 5 -11 2 -14 -9 -9 -13 4 -15
1 -12 -18 3 -12 8 -38 11 -55 6 -30 24 -47 24 -23 0 6 5 10 10 10 7 0 7 -6 1
-17 -5 -10 -9 -20 -8 -23 0 -3 -4 -14 -11 -25 -7 -12 -12 -15 -12 -6 0 11 -3
11 -15 1 -8 -6 -19 -9 -25 -5 -6 3 -10 -3 -10 -14 0 -12 -4 -21 -10 -21 -5 0
-10 4 -10 9 0 5 -7 12 -16 15 -18 7 -57 -11 -50 -23 9 -14 -39 -4 -80 17 -30
15 -44 17 -62 9 -16 -7 -26 -7 -33 0 -13 13 -49 5 -49 -11 0 -13 20 -45 20
-32 0 5 7 3 16 -5 11 -9 18 -9 22 -2 4 7 17 -2 32 -22 27 -36 72 -50 102 -31
13 8 23 8 38 -2 13 -8 20 -9 20 -1 0 6 8 8 19 4 11 -3 22 -1 26 5 4 7 12 7 26
-1 15 -7 24 -7 35 2 8 6 14 7 14 1 0 -6 15 -4 38 4 20 7 44 13 52 14 12 0 15
9 13 38 -2 20 0 31 3 24 5 -10 9 -10 22 0 12 10 16 10 19 1 3 -7 15 -13 29
-13 18 0 22 4 17 18 -4 9 -13 22 -22 28 -8 6 -12 18 -8 26 3 9 0 22 -6 29 -7
7 -3 6 8 -3 11 -9 32 -20 48 -23 21 -6 27 -4 27 9 0 9 -4 16 -9 16 -11 0 -24
31 -16 39 3 3 11 -1 16 -9 8 -11 12 -12 16 -2 2 6 8 10 13 7 4 -3 10 5 13 16
4 15 -3 29 -25 50 -47 42 -118 91 -119 82z"/>
</g>
</svg>
